<mxfile host="app.diagrams.net" modified="2023-08-11T09:38:34.369Z" agent="Mozilla/5.0 (Macintosh; Intel Mac OS X 10_15_7) AppleWebKit/537.36 (KHTML, like Gecko) Chrome/115.0.0.0 Safari/537.36" etag="6Zw6J_7TaFguFr2cZAf6" version="21.6.7" type="github">
  <diagram id="C5RBs43oDa-KdzZeNtuy" name="Page-1">
    <mxGraphModel dx="954" dy="500" grid="1" gridSize="10" guides="1" tooltips="1" connect="1" arrows="1" fold="1" page="1" pageScale="1" pageWidth="1200" pageHeight="1920" background="#000000" math="0" shadow="0">
      <root>
        <mxCell id="WIyWlLk6GJQsqaUBKTNV-0" />
        <mxCell id="WIyWlLk6GJQsqaUBKTNV-1" parent="WIyWlLk6GJQsqaUBKTNV-0" />
        <mxCell id="5l3RipoKI3mHGjdsLEfu-2" value="" style="edgeStyle=orthogonalEdgeStyle;rounded=0;orthogonalLoop=1;jettySize=auto;html=1;strokeColor=#0B4D6A;" edge="1" parent="WIyWlLk6GJQsqaUBKTNV-1" source="5l3RipoKI3mHGjdsLEfu-0" target="5l3RipoKI3mHGjdsLEfu-1">
          <mxGeometry relative="1" as="geometry" />
        </mxCell>
        <mxCell id="5l3RipoKI3mHGjdsLEfu-0" value="开始" style="rounded=1;whiteSpace=wrap;html=1;strokeColor=#BAC8D3;fontColor=#EEEEEE;fillColor=#09555B;" vertex="1" parent="WIyWlLk6GJQsqaUBKTNV-1">
          <mxGeometry x="190" y="60" width="120" height="60" as="geometry" />
        </mxCell>
        <mxCell id="5l3RipoKI3mHGjdsLEfu-6" value="" style="edgeStyle=orthogonalEdgeStyle;rounded=0;orthogonalLoop=1;jettySize=auto;html=1;strokeColor=#0B4D6A;" edge="1" parent="WIyWlLk6GJQsqaUBKTNV-1" source="5l3RipoKI3mHGjdsLEfu-1" target="5l3RipoKI3mHGjdsLEfu-5">
          <mxGeometry relative="1" as="geometry" />
        </mxCell>
        <mxCell id="5l3RipoKI3mHGjdsLEfu-1" value="xxl-job 输入projectId" style="whiteSpace=wrap;html=1;fillColor=#09555B;strokeColor=#BAC8D3;fontColor=#EEEEEE;rounded=1;" vertex="1" parent="WIyWlLk6GJQsqaUBKTNV-1">
          <mxGeometry x="190" y="200" width="120" height="60" as="geometry" />
        </mxCell>
        <mxCell id="5l3RipoKI3mHGjdsLEfu-8" value="" style="edgeStyle=orthogonalEdgeStyle;rounded=0;orthogonalLoop=1;jettySize=auto;html=1;strokeColor=#0B4D6A;" edge="1" parent="WIyWlLk6GJQsqaUBKTNV-1" source="5l3RipoKI3mHGjdsLEfu-5" target="5l3RipoKI3mHGjdsLEfu-7">
          <mxGeometry relative="1" as="geometry" />
        </mxCell>
        <mxCell id="5l3RipoKI3mHGjdsLEfu-14" value="" style="edgeStyle=orthogonalEdgeStyle;rounded=0;orthogonalLoop=1;jettySize=auto;html=1;strokeColor=#0B4D6A;" edge="1" parent="WIyWlLk6GJQsqaUBKTNV-1" source="5l3RipoKI3mHGjdsLEfu-5" target="5l3RipoKI3mHGjdsLEfu-13">
          <mxGeometry relative="1" as="geometry" />
        </mxCell>
        <mxCell id="5l3RipoKI3mHGjdsLEfu-5" value="项目是否存在" style="rhombus;whiteSpace=wrap;html=1;fillColor=#09555B;strokeColor=#BAC8D3;fontColor=#EEEEEE;rounded=1;" vertex="1" parent="WIyWlLk6GJQsqaUBKTNV-1">
          <mxGeometry x="210" y="330" width="80" height="80" as="geometry" />
        </mxCell>
        <mxCell id="5l3RipoKI3mHGjdsLEfu-10" value="" style="edgeStyle=orthogonalEdgeStyle;rounded=0;orthogonalLoop=1;jettySize=auto;html=1;strokeColor=#0B4D6A;" edge="1" parent="WIyWlLk6GJQsqaUBKTNV-1" source="5l3RipoKI3mHGjdsLEfu-7" target="5l3RipoKI3mHGjdsLEfu-9">
          <mxGeometry relative="1" as="geometry" />
        </mxCell>
        <mxCell id="5l3RipoKI3mHGjdsLEfu-7" value="失败" style="whiteSpace=wrap;html=1;fillColor=#09555B;strokeColor=#BAC8D3;fontColor=#EEEEEE;rounded=1;" vertex="1" parent="WIyWlLk6GJQsqaUBKTNV-1">
          <mxGeometry x="350" y="340" width="120" height="60" as="geometry" />
        </mxCell>
        <mxCell id="5l3RipoKI3mHGjdsLEfu-9" value="结束" style="whiteSpace=wrap;html=1;fillColor=#09555B;strokeColor=#BAC8D3;fontColor=#EEEEEE;rounded=1;" vertex="1" parent="WIyWlLk6GJQsqaUBKTNV-1">
          <mxGeometry x="550" y="340" width="120" height="60" as="geometry" />
        </mxCell>
        <mxCell id="5l3RipoKI3mHGjdsLEfu-17" value="" style="edgeStyle=orthogonalEdgeStyle;rounded=0;orthogonalLoop=1;jettySize=auto;html=1;strokeColor=#0B4D6A;" edge="1" parent="WIyWlLk6GJQsqaUBKTNV-1" source="5l3RipoKI3mHGjdsLEfu-13" target="5l3RipoKI3mHGjdsLEfu-16">
          <mxGeometry relative="1" as="geometry" />
        </mxCell>
        <mxCell id="5l3RipoKI3mHGjdsLEfu-13" value="判断执行时间是否在结果统计时间内" style="rhombus;whiteSpace=wrap;html=1;fillColor=#09555B;strokeColor=#BAC8D3;fontColor=#EEEEEE;rounded=1;" vertex="1" parent="WIyWlLk6GJQsqaUBKTNV-1">
          <mxGeometry x="210" y="490" width="80" height="80" as="geometry" />
        </mxCell>
        <mxCell id="5l3RipoKI3mHGjdsLEfu-15" value="否" style="text;html=1;align=center;verticalAlign=middle;resizable=0;points=[];autosize=1;strokeColor=none;fillColor=none;fontColor=#EEEEEE;" vertex="1" parent="WIyWlLk6GJQsqaUBKTNV-1">
          <mxGeometry x="290" y="338" width="40" height="30" as="geometry" />
        </mxCell>
        <mxCell id="5l3RipoKI3mHGjdsLEfu-20" value="" style="edgeStyle=orthogonalEdgeStyle;rounded=0;orthogonalLoop=1;jettySize=auto;html=1;strokeColor=#0B4D6A;" edge="1" parent="WIyWlLk6GJQsqaUBKTNV-1" source="5l3RipoKI3mHGjdsLEfu-16" target="5l3RipoKI3mHGjdsLEfu-19">
          <mxGeometry relative="1" as="geometry" />
        </mxCell>
        <mxCell id="5l3RipoKI3mHGjdsLEfu-16" value="失败" style="whiteSpace=wrap;html=1;fillColor=#09555B;strokeColor=#BAC8D3;fontColor=#EEEEEE;rounded=1;" vertex="1" parent="WIyWlLk6GJQsqaUBKTNV-1">
          <mxGeometry x="350" y="500" width="120" height="60" as="geometry" />
        </mxCell>
        <mxCell id="5l3RipoKI3mHGjdsLEfu-18" value="否" style="text;html=1;align=center;verticalAlign=middle;resizable=0;points=[];autosize=1;strokeColor=none;fillColor=none;fontColor=#EEEEEE;" vertex="1" parent="WIyWlLk6GJQsqaUBKTNV-1">
          <mxGeometry x="300" y="498" width="40" height="30" as="geometry" />
        </mxCell>
        <mxCell id="5l3RipoKI3mHGjdsLEfu-19" value="结束" style="whiteSpace=wrap;html=1;fillColor=#09555B;strokeColor=#BAC8D3;fontColor=#EEEEEE;rounded=1;" vertex="1" parent="WIyWlLk6GJQsqaUBKTNV-1">
          <mxGeometry x="550" y="500" width="120" height="60" as="geometry" />
        </mxCell>
      </root>
    </mxGraphModel>
  </diagram>
</mxfile>
